<svg xmlns="http://www.w3.org/2000/svg" width="512" height="512" viewBox="0 0 64 64"><g id="Solid"><path d="M32,3A21.134,21.134,0,0,0,11,24.267C11,42.633,32,61,32,61S53,42.633,53,24.267A21.134,21.134,0,0,0,32,3Zm0,39A18,18,0,1,1,50,24,18.021,18.021,0,0,1,32,42Z"/><circle cx="24.5" cy="26.5" r="1.5"/><circle cx="39.5" cy="26.5" r="1.5"/><path d="M38.6,18.606A1,1,0,0,0,37.682,18H26.318a1,1,0,0,0-.919.606L23.517,23H40.483Z"/><path d="M32,8A16,16,0,1,0,48,24,16.019,16.019,0,0,0,32,8ZM42.919,23.606v0l0,.007a.99.99,0,0,1,.07.342c0,.014.008.026.008.041v5a1,1,0,0,1-1,1v2H38V30H26v2H22V30a1,1,0,0,1-1-1V24c0-.015.008-.027.008-.041a.99.99,0,0,1,.07-.342l0-.007v0l.322-.751-2.719-.906.632-1.9,2.877.959,1.369-3.192A3,3,0,0,1,26.318,16H27l1-3h8l1,3h.682a3,3,0,0,1,2.756,1.818l1.369,3.192,2.877-.959.632,1.9-2.719.906Z"/></g></svg>